<svg data-v-0dd9719b="" version="1.0" xmlns="http://www.w3.org/2000/svg" xmlns:xlink="http://www.w3.org/1999/xlink" width="100%" height="100%" viewBox="0 0 340.000000 250.000000" preserveAspectRatio="xMidYMid meet" color-interpolation-filters="sRGB" style="margin: auto;"> <rect data-v-0dd9719b="" x="0" y="0" width="100%" height="100%" fill="#FFFFFF" fill-opacity="1" class="background"></rect> <rect data-v-0dd9719b="" x="0" y="0" width="100%" height="100%" fill="url(#watermark)" fill-opacity="1" class="watermarklayer"></rect> <g data-v-0dd9719b="" fill="#300000" class="icon-text-wrapper icon-svg-group iconsvg" transform="translate(62.67500305175781,94.98348999023438)"><g class="iconsvg-imagesvg" transform="translate(0,0)"><g><rect fill="#300000" fill-opacity="0" stroke-width="2" x="0" y="0" width="60" height="60.033018159987996" class="image-rect"></rect> <svg x="0" y="0" width="60" height="60.033018159987996" filtersec="colorsb1987375618" class="image-svg-svg primary" style="overflow: visible;"><svg xmlns="http://www.w3.org/2000/svg" viewBox="0 -0.000057221815950470045 119.93415069580078 120.00004577636719"><defs><clipPath id="abc6873ee-894b-4989-8f83-475b2925b8c1" transform="translate(-.33 -.33)"><path fill="none" d="M0 0h120.59v120.59H0z"></path></clipPath></defs><g><g clip-path="url(#abc6873ee-894b-4989-8f83-475b2925b8c1)"><path d="M100.47 49.6c-14.41 7.97-21.46 38.95-46.8 46.37 0 0 16.09-10.87 15.86-17 0 0-35.23 30.68-67.37-9 0 0 48.26 36.16 84-22.32 2.28-3.73 7-9 16.6-5.58a11.89 11.89 0 0 0 8.08-.52c3.47-1.37 1.54 1.47-10.37 8.05zM59.89 0a59.82 59.82 0 0 0-39 14.39c5.93 13.41 18.9 33.38 44.07 33.28 0 0-34 2.92-49.9-27.49a61.85 61.85 0 0 0-4.52 5.68C17.8 38.54 34.44 57.29 68.37 53c0 0-31.36 17.26-64.15-15.4a57.32 57.32 0 0 0-2.44 7.55c10.25 9.26 36.82 27.91 72.64 13.26 0 0-32 33.93-74.42 4.4A60 60 0 1 0 59.89 0z" fill="#ea3637"></path></g></g></svg></svg> <!----></g></g> <g transform="translate(67,14.826509475708008)"><g data-gra="path-name" fill-rule="" class="tp-name iconsvg-namesvg"><g transform="scale(1)"><g><path d="M18 0L2.92 0 2.92-5.35 16.65-5.35Q19.93-5.35 21.02-5.98L21.02-5.98Q22.59-6.93 22.59-8.82L22.59-8.82Q22.59-11.03 20.75-12.01L20.75-12.01Q19.71-12.6 17.41-12.6L17.41-12.6 11.83-12.6Q6.75-12.6 4.5-14.45L4.5-14.45Q3.1-15.62 2.32-17.37 1.53-19.13 1.53-21.15L1.53-21.15Q1.53-24.3 3.38-26.91L3.38-26.91Q5.17-29.43 9.13-29.88L9.13-29.88Q10.48-30.02 13.14-30.02L13.14-30.02 28.04-30.02 28.04-24.66 14.58-24.66Q11.56-24.61 10.57-24.39L10.57-24.39Q8.55-23.89 8.55-21.33L8.55-21.33Q8.55-19.17 10.26-18.45L10.26-18.45Q11.38-17.91 14.04-17.91L14.04-17.91 18.86-17.91Q22.54-17.91 24.34-17.28L24.34-17.28Q27.54-16.2 28.75-13.5L28.75-13.5Q29.7-11.34 29.7-8.87L29.7-8.87Q29.7-6.12 28.44-3.96L28.44-3.96Q26.68-0.9 23.18-0.27L23.18-0.27Q21.46 0 18 0L18 0ZM34.34-30.02L40.72-30.02 40.72 0 34.34 0 34.34-30.02ZM51.84 0L40.95-15.16 52.42-30.02 60.84-30.02 48.28-15.16 60.25 0 51.84 0ZM77.17-30.2L77.17-30.2Q81.67-30.2 85.09-28.66L85.09-28.66Q89.1-26.82 90.72-22.5L90.72-22.5Q91.98-19.13 91.98-14.58L91.98-14.58Q91.98-9.99 90.45-6.61L90.45-6.61Q88.51-2.61 84.51-0.99L84.51-0.99Q81.54 0.18 77.67 0.18L77.67 0.18Q72.58 0.18 68.85-1.71L68.85-1.71Q65.7-3.28 64.03-6.66 62.37-10.04 62.37-14.85L62.37-14.85Q62.37-23.45 66.64-27.09L66.64-27.09Q70.24-30.15 77.17-30.2ZM77.22-25.15L77.22-25.15Q72.81-25.15 70.92-22.27L70.92-22.27Q69.39-20.02 69.39-15.03L69.39-15.03Q69.39-9.76 71.28-7.29L71.28-7.29Q73.17-4.86 77.26-4.86L77.26-4.86Q81.22-4.86 83.09-7.33 84.96-9.81 84.96-14.98L84.96-14.98Q84.96-19.71 83.43-22.18L83.43-22.18Q81.67-25.11 77.22-25.15ZM109.66-30.2L109.66-30.2Q114.16-30.2 117.58-28.66L117.58-28.66Q121.59-26.82 123.21-22.5L123.21-22.5Q124.47-19.13 124.47-14.58L124.47-14.58Q124.47-9.99 122.94-6.61L122.94-6.61Q121-2.61 117-0.99L117-0.99Q114.03 0.18 110.16 0.18L110.16 0.18Q105.07 0.18 101.34-1.71L101.34-1.71Q98.19-3.28 96.52-6.66 94.86-10.04 94.86-14.85L94.86-14.85Q94.86-23.45 99.13-27.09L99.13-27.09Q102.73-30.15 109.66-30.2ZM109.71-25.15L109.71-25.15Q105.3-25.15 103.41-22.27L103.41-22.27Q101.88-20.02 101.88-15.03L101.88-15.03Q101.88-9.76 103.77-7.29L103.77-7.29Q105.66-4.86 109.75-4.86L109.75-4.86Q113.71-4.86 115.58-7.33 117.45-9.81 117.45-14.98L117.45-14.98Q117.45-19.71 115.92-22.18L115.92-22.18Q114.16-25.11 109.71-25.15ZM128.61-13.14L128.61-30.02 134.95-30.02 134.95-13.14Q135.09-9.95 135.22-8.91L135.22-8.91Q135.54-6.84 137.2-6.1 138.87-5.35 143.06-5.35L143.06-5.35 149.18-5.35 149.18 0 142.38 0Q137.56 0 135.41-0.54L135.41-0.54Q130.45-1.98 129.1-6.84L129.1-6.84Q128.61-8.73 128.61-13.14L128.61-13.14Z" transform="translate(-1.5299999713897705, 30.200000762939453)"></path></g> <!----> <!----> <!----> <!----> <!----> <!----> <!----></g></g> <!----></g></g><defs v-gra="od"></defs></svg>